<?xml version="1.0" encoding="UTF-8" standalone="no"?>
<!DOCTYPE svg PUBLIC "-//W3C//DTD SVG 1.1//EN"
 "http://www.w3.org/Graphics/SVG/1.1/DTD/svg11.dtd">
<!-- Generated by graphviz version 2.43.0 (0)
 -->
<!-- Title: aimd Pages: 1 -->
<svg width="448pt" height="106pt"
 viewBox="0.00 0.00 448.00 106.26" xmlns="http://www.w3.org/2000/svg" xmlns:xlink="http://www.w3.org/1999/xlink">
<g id="graph0" class="graph" transform="scale(1 1) rotate(0) translate(4 102.26)">
<title>aimd</title>
<polygon fill="white" stroke="transparent" points="-4,4 -4,-102.26 444,-102.26 444,4 -4,4"/>
<!-- cold -->
<g id="node1" class="node">
<title>cold</title>
<path fill="#c8e6c9" stroke="#4caf50" stroke-width="2" d="M139,-58.26C139,-58.26 12,-58.26 12,-58.26 6,-58.26 0,-52.26 0,-46.26 0,-46.26 0,-16.26 0,-16.26 0,-10.26 6,-4.26 12,-4.26 12,-4.26 139,-4.26 139,-4.26 145,-4.26 151,-10.26 151,-16.26 151,-16.26 151,-46.26 151,-46.26 151,-52.26 145,-58.26 139,-58.26"/>
<text text-anchor="middle" x="75.5" y="-40.46" font-family="Helvetica,sans-Serif" font-size="11.00">COLD</text>
<text text-anchor="middle" x="75.5" y="-28.46" font-family="Helvetica,sans-Serif" font-size="11.00">(Pessimistic Locking)</text>
<text text-anchor="middle" x="75.5" y="-16.46" font-family="Helvetica,sans-Serif" font-size="11.00">credits = 0</text>
</g>
<!-- hot -->
<g id="node2" class="node">
<title>hot</title>
<path fill="#ffcdd2" stroke="#f44336" stroke-width="2" d="M428,-58.26C428,-58.26 328,-58.26 328,-58.26 322,-58.26 316,-52.26 316,-46.26 316,-46.26 316,-16.26 316,-16.26 316,-10.26 322,-4.26 328,-4.26 328,-4.26 428,-4.26 428,-4.26 434,-4.26 440,-10.26 440,-16.26 440,-16.26 440,-46.26 440,-46.26 440,-52.26 434,-58.26 428,-58.26"/>
<text text-anchor="middle" x="378" y="-40.46" font-family="Helvetica,sans-Serif" font-size="11.00">HOT</text>
<text text-anchor="middle" x="378" y="-28.46" font-family="Helvetica,sans-Serif" font-size="11.00">(Group Locking)</text>
<text text-anchor="middle" x="378" y="-16.46" font-family="Helvetica,sans-Serif" font-size="11.00">credits &gt; 0</text>
</g>
<!-- cold&#45;&gt;hot -->
<g id="edge1" class="edge">
<title>cold&#45;&gt;hot</title>
<path fill="none" stroke="#f44336" stroke-width="2" d="M151.22,-32.14C157.23,-32.19 163.22,-32.23 169,-32.26 226.33,-32.57 240.67,-32.62 298,-32.26 300.52,-32.25 303.09,-32.23 305.68,-32.21"/>
<polygon fill="#f44336" stroke="#f44336" stroke-width="2" points="305.79,-35.71 315.76,-32.11 305.73,-28.71 305.79,-35.71"/>
<text text-anchor="middle" x="233.5" y="-46.26" font-family="Helvetica,sans-Serif" font-size="10.00" fill="#d32f2f"> &#160;2 consecutive conflicts</text>
<text text-anchor="middle" x="233.5" y="-35.26" font-family="Helvetica,sans-Serif" font-size="10.00" fill="#d32f2f"> &#160;credits += 36</text>
</g>
<!-- hot&#45;&gt;cold -->
<g id="edge2" class="edge">
<title>hot&#45;&gt;cold</title>
<path fill="none" stroke="#4caf50" stroke-width="2" d="M315.76,-9.89C309.82,-8.42 303.83,-7.16 298,-6.26 241.34,2.49 225.83,1.28 169,-6.26 166.35,-6.61 163.66,-7.02 160.96,-7.47"/>
<polygon fill="#4caf50" stroke="#4caf50" stroke-width="2" points="160.32,-4.03 151.13,-9.3 161.6,-10.91 160.32,-4.03"/>
<text text-anchor="middle" x="233.5" y="-20.26" font-family="Helvetica,sans-Serif" font-size="10.00" fill="#388e3c"> &#160;commits drain credits</text>
<text text-anchor="middle" x="233.5" y="-9.26" font-family="Helvetica,sans-Serif" font-size="10.00" fill="#388e3c"> &#160;credits &#45;= 1 per commit &#160;</text>
</g>
<!-- hot&#45;&gt;hot -->
<g id="edge3" class="edge">
<title>hot&#45;&gt;hot</title>
<path fill="none" stroke="#ff9800" stroke-dasharray="5,2" d="M351.03,-58.5C350.45,-68.29 359.44,-76.26 378,-76.26 389.89,-76.26 397.86,-72.99 401.89,-68.06"/>
<polygon fill="#ff9800" stroke="#ff9800" points="405.24,-69.09 404.97,-58.5 398.57,-66.95 405.24,-69.09"/>
<text text-anchor="middle" x="378" y="-90.26" font-family="Helvetica,sans-Serif" font-size="10.00" fill="#e65100"> &#160;more conflicts</text>
<text text-anchor="middle" x="378" y="-79.26" font-family="Helvetica,sans-Serif" font-size="10.00" fill="#e65100"> &#160;credits refill &#160;</text>
</g>
</g>
</svg>
