<?xml version="1.0" encoding="UTF-8" standalone="no"?>
<!DOCTYPE svg PUBLIC "-//W3C//DTD SVG 1.1//EN"
 "http://www.w3.org/Graphics/SVG/1.1/DTD/svg11.dtd">
<!-- Generated by graphviz version 2.43.0 (0)
 -->
<!-- Title: architecture Pages: 1 -->
<svg width="900pt" height="322pt"
 viewBox="0.00 0.00 900.00 322.00" xmlns="http://www.w3.org/2000/svg" xmlns:xlink="http://www.w3.org/1999/xlink">
<g id="graph0" class="graph" transform="scale(1 1) rotate(0) translate(4 318)">
<title>architecture</title>
<polygon fill="white" stroke="transparent" points="-4,4 -4,-318 896,-318 896,4 -4,4"/>
<g id="clust1" class="cluster">
<title>cluster_sg</title>
<path fill="#f5f5f5" stroke="#9e9e9e" d="M252,-8C252,-8 630,-8 630,-8 636,-8 642,-14 642,-20 642,-20 642,-294 642,-294 642,-300 636,-306 630,-306 630,-306 252,-306 252,-306 246,-306 240,-300 240,-294 240,-294 240,-20 240,-20 240,-14 246,-8 252,-8"/>
<text text-anchor="middle" x="286" y="-290.8" font-family="Helvetica Bold" font-size="14.00">SkewGuard</text>
</g>
<g id="clust2" class="cluster">
<title>cluster_paths</title>
</g>
<!-- app -->
<g id="node1" class="node">
<title>app</title>
<path fill="#e8f4fd" stroke="#2196f3" d="M220,-159C220,-159 12,-159 12,-159 6,-159 0,-153 0,-147 0,-147 0,-123 0,-123 0,-117 6,-111 12,-111 12,-111 220,-111 220,-111 226,-111 232,-117 232,-123 232,-123 232,-147 232,-147 232,-153 226,-159 220,-159"/>
<text text-anchor="middle" x="116" y="-138.4" font-family="Helvetica,sans-Serif" font-size="12.00">Application</text>
<text text-anchor="middle" x="116" y="-125.4" font-family="Helvetica,sans-Serif" font-size="12.00">begin() / get() / put() / commit()</text>
</g>
<!-- txn -->
<g id="node2" class="node">
<title>txn</title>
<path fill="#fff9c4" stroke="#fbc02d" d="M466,-64C466,-64 312,-64 312,-64 306,-64 300,-58 300,-52 300,-52 300,-28 300,-28 300,-22 306,-16 312,-16 312,-16 466,-16 466,-16 472,-16 478,-22 478,-28 478,-28 478,-52 478,-52 478,-58 472,-64 466,-64"/>
<text text-anchor="middle" x="389" y="-43.4" font-family="Helvetica,sans-Serif" font-size="12.00">Transaction Router</text>
<text text-anchor="middle" x="389" y="-30.4" font-family="Helvetica,sans-Serif" font-size="12.00">should_use_hot_path()</text>
</g>
<!-- app&#45;&gt;txn -->
<g id="edge1" class="edge">
<title>app&#45;&gt;txn</title>
<path fill="none" stroke="black" d="M154.87,-110.93C172.97,-100.94 195.09,-89.78 216,-82 239.39,-73.3 265.27,-66 289.72,-60.09"/>
<polygon fill="black" stroke="black" points="290.81,-63.43 299.74,-57.73 289.2,-56.62 290.81,-63.43"/>
<text text-anchor="middle" x="242" y="-85" font-family="Helvetica,sans-Serif" font-size="10.00"> &#160;commit()</text>
</g>
<!-- cold -->
<g id="node3" class="node">
<title>cold</title>
<path fill="#c8e6c9" stroke="#4caf50" d="M402.5,-267C402.5,-267 267.5,-267 267.5,-267 261.5,-267 255.5,-261 255.5,-255 255.5,-255 255.5,-218 255.5,-218 255.5,-212 261.5,-206 267.5,-206 267.5,-206 402.5,-206 402.5,-206 408.5,-206 414.5,-212 414.5,-218 414.5,-218 414.5,-255 414.5,-255 414.5,-261 408.5,-267 402.5,-267"/>
<text text-anchor="middle" x="335" y="-246.4" font-family="Helvetica,sans-Serif" font-size="12.00">Cold Path</text>
<text text-anchor="middle" x="335" y="-233.4" font-family="Helvetica,sans-Serif" font-size="12.00">Pessimistic Locking</text>
<text text-anchor="middle" x="335" y="-220.4" font-family="Helvetica,sans-Serif" font-size="12.00">(per&#45;key RwLock)</text>
</g>
<!-- txn&#45;&gt;cold -->
<g id="edge2" class="edge">
<title>txn&#45;&gt;cold</title>
<path fill="none" stroke="black" d="M333.32,-64.05C313.77,-75.17 293.97,-90.61 283,-111 267.89,-139.08 283.55,-172.49 301.53,-197.63"/>
<polygon fill="black" stroke="black" points="298.87,-199.93 307.67,-205.82 304.47,-195.72 298.87,-199.93"/>
<text text-anchor="middle" x="310" y="-132.5" font-family="Helvetica,sans-Serif" font-size="10.00">credits = 0</text>
</g>
<!-- hot -->
<g id="node4" class="node">
<title>hot</title>
<path fill="#ffcdd2" stroke="#f44336" d="M613.5,-267C613.5,-267 444.5,-267 444.5,-267 438.5,-267 432.5,-261 432.5,-255 432.5,-255 432.5,-218 432.5,-218 432.5,-212 438.5,-206 444.5,-206 444.5,-206 613.5,-206 613.5,-206 619.5,-206 625.5,-212 625.5,-218 625.5,-218 625.5,-255 625.5,-255 625.5,-261 619.5,-267 613.5,-267"/>
<text text-anchor="middle" x="529" y="-246.4" font-family="Helvetica,sans-Serif" font-size="12.00">Hot Path</text>
<text text-anchor="middle" x="529" y="-233.4" font-family="Helvetica,sans-Serif" font-size="12.00">Group Locking</text>
<text text-anchor="middle" x="529" y="-220.4" font-family="Helvetica,sans-Serif" font-size="12.00">(leader/follower handoff)</text>
</g>
<!-- txn&#45;&gt;hot -->
<g id="edge3" class="edge">
<title>txn&#45;&gt;hot</title>
<path fill="none" stroke="black" d="M474.81,-64.11C500.66,-74.73 527.15,-89.83 546,-111 573.93,-142.37 577.3,-162.02 568,-188 566.89,-191.11 565.47,-194.17 563.84,-197.14"/>
<polygon fill="black" stroke="black" points="560.79,-195.42 558.4,-205.74 566.71,-199.16 560.79,-195.42"/>
<text text-anchor="middle" x="601.5" y="-138" font-family="Helvetica,sans-Serif" font-size="10.00">credits &gt; 0</text>
<text text-anchor="middle" x="601.5" y="-127" font-family="Helvetica,sans-Serif" font-size="10.00">or force_hot</text>
</g>
<!-- monitor -->
<g id="node5" class="node">
<title>monitor</title>
<path fill="#e1bee7" stroke="#9c27b0" d="M524.5,-159C524.5,-159 357.5,-159 357.5,-159 351.5,-159 345.5,-153 345.5,-147 345.5,-147 345.5,-123 345.5,-123 345.5,-117 351.5,-111 357.5,-111 357.5,-111 524.5,-111 524.5,-111 530.5,-111 536.5,-117 536.5,-123 536.5,-123 536.5,-147 536.5,-147 536.5,-153 530.5,-159 524.5,-159"/>
<text text-anchor="middle" x="441" y="-138.4" font-family="Helvetica,sans-Serif" font-size="12.00">Contention Monitor</text>
<text text-anchor="middle" x="441" y="-125.4" font-family="Helvetica,sans-Serif" font-size="12.00">AIMD Credits / Threshold</text>
</g>
<!-- cold&#45;&gt;monitor -->
<g id="edge6" class="edge">
<title>cold&#45;&gt;monitor</title>
<path fill="none" stroke="#9e9e9e" stroke-dasharray="5,2" d="M329.79,-205.75C329.58,-195.83 331.2,-185.22 337,-177 340.07,-172.65 343.67,-168.77 347.67,-165.29"/>
<polygon fill="#9e9e9e" stroke="#9e9e9e" points="349.95,-167.95 355.78,-159.1 345.7,-162.39 349.95,-167.95"/>
<text text-anchor="middle" x="392" y="-180" font-family="Helvetica,sans-Serif" font-size="10.00">record commit/conflict</text>
</g>
<!-- storage -->
<g id="node6" class="node">
<title>storage</title>
<path fill="#d7ccc8" stroke="#795548" d="M880,-159C880,-159 662,-159 662,-159 656,-159 650,-153 650,-147 650,-147 650,-123 650,-123 650,-117 656,-111 662,-111 662,-111 880,-111 880,-111 886,-111 892,-117 892,-123 892,-123 892,-147 892,-147 892,-153 886,-159 880,-159"/>
<text text-anchor="middle" x="771" y="-138.4" font-family="Helvetica,sans-Serif" font-size="12.00">Storage Backend</text>
<text text-anchor="middle" x="771" y="-125.4" font-family="Helvetica,sans-Serif" font-size="12.00">MemStorage / RocksDB / Custom</text>
</g>
<!-- cold&#45;&gt;storage -->
<g id="edge4" class="edge">
<title>cold&#45;&gt;storage</title>
<path fill="none" stroke="black" d="M397.79,-205.89C406.45,-202.74 415.34,-199.98 424,-198 510.33,-178.29 537.35,-210.5 623,-188 633.57,-185.22 634.89,-181.15 645,-177 657.59,-171.84 671.09,-166.87 684.4,-162.29"/>
<polygon fill="black" stroke="black" points="685.7,-165.55 694.05,-159.02 683.45,-158.92 685.7,-165.55"/>
<text text-anchor="middle" x="672.5" y="-180" font-family="Helvetica,sans-Serif" font-size="10.00">write batch</text>
</g>
<!-- hot&#45;&gt;monitor -->
<g id="edge7" class="edge">
<title>hot&#45;&gt;monitor</title>
<path fill="none" stroke="#9e9e9e" stroke-dasharray="5,2" d="M475.89,-205.94C469.24,-200.61 463.02,-194.62 458,-188 453.72,-182.35 450.49,-175.59 448.07,-168.83"/>
<polygon fill="#9e9e9e" stroke="#9e9e9e" points="451.35,-167.59 445.05,-159.06 444.66,-169.65 451.35,-167.59"/>
<text text-anchor="middle" x="513" y="-180" font-family="Helvetica,sans-Serif" font-size="10.00">record commit/conflict</text>
</g>
<!-- hot&#45;&gt;storage -->
<g id="edge5" class="edge">
<title>hot&#45;&gt;storage</title>
<path fill="none" stroke="black" d="M625.51,-216.58C651.75,-209.51 679.63,-200.15 704,-188 715.96,-182.04 727.86,-173.77 738.23,-165.58"/>
<polygon fill="black" stroke="black" points="740.67,-168.11 746.21,-159.07 736.25,-162.68 740.67,-168.11"/>
<text text-anchor="middle" x="748.5" y="-180" font-family="Helvetica,sans-Serif" font-size="10.00">write batch</text>
</g>
<!-- monitor&#45;&gt;txn -->
<g id="edge8" class="edge">
<title>monitor&#45;&gt;txn</title>
<path fill="none" stroke="#9e9e9e" stroke-dasharray="5,2" d="M427.88,-110.53C421.55,-99.21 413.86,-85.46 406.99,-73.18"/>
<polygon fill="#9e9e9e" stroke="#9e9e9e" points="409.87,-71.16 401.94,-64.14 403.76,-74.57 409.87,-71.16"/>
<text text-anchor="middle" x="448" y="-85" font-family="Helvetica,sans-Serif" font-size="10.00">mode(range)</text>
</g>
</g>
</svg>
