<?xml version="1.0" encoding="UTF-8" standalone="no"?>
<!DOCTYPE svg PUBLIC "-//W3C//DTD SVG 1.1//EN"
 "http://www.w3.org/Graphics/SVG/1.1/DTD/svg11.dtd">
<!-- Generated by graphviz version 2.43.0 (0)
 -->
<!-- Title: handoff Pages: 1 -->
<svg width="1039pt" height="182pt"
 viewBox="0.00 0.00 1039.07 182.00" xmlns="http://www.w3.org/2000/svg" xmlns:xlink="http://www.w3.org/1999/xlink">
<g id="graph0" class="graph" transform="scale(1 1) rotate(0) translate(4 178)">
<title>handoff</title>
<polygon fill="white" stroke="transparent" points="-4,4 -4,-178 1035.07,-178 1035.07,4 -4,4"/>
<g id="clust1" class="cluster">
<title>cluster_standard</title>
<path fill="#fff3e0" stroke="#ff9800" d="M20,-8C20,-8 1011.07,-8 1011.07,-8 1017.07,-8 1023.07,-14 1023.07,-20 1023.07,-20 1023.07,-71 1023.07,-71 1023.07,-77 1017.07,-83 1011.07,-83 1011.07,-83 20,-83 20,-83 14,-83 8,-77 8,-71 8,-71 8,-20 8,-20 8,-14 14,-8 20,-8"/>
<text text-anchor="middle" x="67.5" y="-69.4" font-family="Helvetica Bold" font-size="12.00">Standard Locking</text>
</g>
<g id="clust2" class="cluster">
<title>cluster_group</title>
<path fill="#e8f5e9" stroke="#4caf50" d="M20,-91C20,-91 802.07,-91 802.07,-91 808.07,-91 814.07,-97 814.07,-103 814.07,-103 814.07,-154 814.07,-154 814.07,-160 808.07,-166 802.07,-166 802.07,-166 20,-166 20,-166 14,-166 8,-160 8,-154 8,-154 8,-103 8,-103 8,-97 14,-91 20,-91"/>
<text text-anchor="middle" x="97.5" y="-152.4" font-family="Helvetica Bold" font-size="12.00">Group Locking (SkewGuard)</text>
</g>
<!-- s1 -->
<g id="node1" class="node">
<title>s1</title>
<path fill="#ffe0b2" stroke="#f57c00" d="M58,-53C58,-53 28,-53 28,-53 22,-53 16,-47 16,-41 16,-41 16,-29 16,-29 16,-23 22,-17 28,-17 28,-17 58,-17 58,-17 64,-17 70,-23 70,-29 70,-29 70,-41 70,-41 70,-47 64,-53 58,-53"/>
<text text-anchor="middle" x="43" y="-32.2" font-family="Helvetica,sans-Serif" font-size="11.00">Lock</text>
</g>
<!-- s2 -->
<g id="node2" class="node">
<title>s2</title>
<path fill="#c8e6c9" stroke="#4caf50" d="M166,-54C166,-54 118,-54 118,-54 112,-54 106,-48 106,-42 106,-42 106,-28 106,-28 106,-22 112,-16 118,-16 118,-16 166,-16 166,-16 172,-16 178,-22 178,-28 178,-28 178,-42 178,-42 178,-48 172,-54 166,-54"/>
<text text-anchor="middle" x="142" y="-38.2" font-family="Helvetica,sans-Serif" font-size="11.00">T1</text>
<text text-anchor="middle" x="142" y="-26.2" font-family="Helvetica,sans-Serif" font-size="11.00">execute</text>
</g>
<!-- s1&#45;&gt;s2 -->
<g id="edge1" class="edge">
<title>s1&#45;&gt;s2</title>
<path fill="none" stroke="black" d="M70.25,-35C78.15,-35 87.06,-35 95.83,-35"/>
<polygon fill="black" stroke="black" points="95.98,-38.5 105.98,-35 95.98,-31.5 95.98,-38.5"/>
</g>
<!-- s3 -->
<g id="node3" class="node">
<title>s3</title>
<path fill="#ffcdd2" stroke="#f44336" d="M294.27,-53C294.27,-53 253.27,-53 253.27,-53 247.27,-53 241.27,-47 241.27,-41 241.27,-41 241.27,-29 241.27,-29 241.27,-23 247.27,-17 253.27,-17 253.27,-17 294.27,-17 294.27,-17 300.27,-17 306.27,-23 306.27,-29 306.27,-29 306.27,-41 306.27,-41 306.27,-47 300.27,-53 294.27,-53"/>
<text text-anchor="middle" x="273.77" y="-32.2" font-family="Helvetica,sans-Serif" font-size="11.00">Unlock</text>
</g>
<!-- s2&#45;&gt;s3 -->
<g id="edge2" class="edge">
<title>s2&#45;&gt;s3</title>
<path fill="none" stroke="black" d="M178.12,-35C194.4,-35 213.88,-35 230.93,-35"/>
<polygon fill="black" stroke="black" points="231.17,-38.5 241.17,-35 231.17,-31.5 231.17,-38.5"/>
</g>
<!-- s4 -->
<g id="node4" class="node">
<title>s4</title>
<path fill="#ffe0b2" stroke="#f57c00" d="M420.53,-53C420.53,-53 390.53,-53 390.53,-53 384.53,-53 378.53,-47 378.53,-41 378.53,-41 378.53,-29 378.53,-29 378.53,-23 384.53,-17 390.53,-17 390.53,-17 420.53,-17 420.53,-17 426.53,-17 432.53,-23 432.53,-29 432.53,-29 432.53,-41 432.53,-41 432.53,-47 426.53,-53 420.53,-53"/>
<text text-anchor="middle" x="405.53" y="-32.2" font-family="Helvetica,sans-Serif" font-size="11.00">Lock</text>
</g>
<!-- s3&#45;&gt;s4 -->
<g id="edge3" class="edge">
<title>s3&#45;&gt;s4</title>
<path fill="none" stroke="black" d="M306.51,-35C325.21,-35 348.93,-35 368.35,-35"/>
<polygon fill="black" stroke="black" points="368.35,-38.5 378.35,-35 368.35,-31.5 368.35,-38.5"/>
</g>
<!-- s5 -->
<g id="node5" class="node">
<title>s5</title>
<path fill="#c8e6c9" stroke="#4caf50" d="M561.3,-54C561.3,-54 513.3,-54 513.3,-54 507.3,-54 501.3,-48 501.3,-42 501.3,-42 501.3,-28 501.3,-28 501.3,-22 507.3,-16 513.3,-16 513.3,-16 561.3,-16 561.3,-16 567.3,-16 573.3,-22 573.3,-28 573.3,-28 573.3,-42 573.3,-42 573.3,-48 567.3,-54 561.3,-54"/>
<text text-anchor="middle" x="537.3" y="-38.2" font-family="Helvetica,sans-Serif" font-size="11.00">T2</text>
<text text-anchor="middle" x="537.3" y="-26.2" font-family="Helvetica,sans-Serif" font-size="11.00">execute</text>
</g>
<!-- s4&#45;&gt;s5 -->
<g id="edge4" class="edge">
<title>s4&#45;&gt;s5</title>
<path fill="none" stroke="black" d="M432.79,-35C449.49,-35 471.56,-35 491.02,-35"/>
<polygon fill="black" stroke="black" points="491.22,-38.5 501.22,-35 491.22,-31.5 491.22,-38.5"/>
</g>
<!-- s6 -->
<g id="node6" class="node">
<title>s6</title>
<path fill="#ffcdd2" stroke="#f44336" d="M689.57,-53C689.57,-53 648.57,-53 648.57,-53 642.57,-53 636.57,-47 636.57,-41 636.57,-41 636.57,-29 636.57,-29 636.57,-23 642.57,-17 648.57,-17 648.57,-17 689.57,-17 689.57,-17 695.57,-17 701.57,-23 701.57,-29 701.57,-29 701.57,-41 701.57,-41 701.57,-47 695.57,-53 689.57,-53"/>
<text text-anchor="middle" x="669.07" y="-32.2" font-family="Helvetica,sans-Serif" font-size="11.00">Unlock</text>
</g>
<!-- s5&#45;&gt;s6 -->
<g id="edge5" class="edge">
<title>s5&#45;&gt;s6</title>
<path fill="none" stroke="black" d="M573.42,-35C589.7,-35 609.18,-35 626.23,-35"/>
<polygon fill="black" stroke="black" points="626.47,-38.5 636.47,-35 626.47,-31.5 626.47,-38.5"/>
</g>
<!-- s7 -->
<g id="node7" class="node">
<title>s7</title>
<path fill="#ffe0b2" stroke="#f57c00" d="M788.57,-53C788.57,-53 758.57,-53 758.57,-53 752.57,-53 746.57,-47 746.57,-41 746.57,-41 746.57,-29 746.57,-29 746.57,-23 752.57,-17 758.57,-17 758.57,-17 788.57,-17 788.57,-17 794.57,-17 800.57,-23 800.57,-29 800.57,-29 800.57,-41 800.57,-41 800.57,-47 794.57,-53 788.57,-53"/>
<text text-anchor="middle" x="773.57" y="-32.2" font-family="Helvetica,sans-Serif" font-size="11.00">Lock</text>
</g>
<!-- s6&#45;&gt;s7 -->
<g id="edge6" class="edge">
<title>s6&#45;&gt;s7</title>
<path fill="none" stroke="black" d="M701.66,-35C712.65,-35 725.06,-35 736.39,-35"/>
<polygon fill="black" stroke="black" points="736.42,-38.5 746.42,-35 736.42,-31.5 736.42,-38.5"/>
</g>
<!-- s8 -->
<g id="node8" class="node">
<title>s8</title>
<path fill="#c8e6c9" stroke="#4caf50" d="M902.07,-54C902.07,-54 854.07,-54 854.07,-54 848.07,-54 842.07,-48 842.07,-42 842.07,-42 842.07,-28 842.07,-28 842.07,-22 848.07,-16 854.07,-16 854.07,-16 902.07,-16 902.07,-16 908.07,-16 914.07,-22 914.07,-28 914.07,-28 914.07,-42 914.07,-42 914.07,-48 908.07,-54 902.07,-54"/>
<text text-anchor="middle" x="878.07" y="-38.2" font-family="Helvetica,sans-Serif" font-size="11.00">T3</text>
<text text-anchor="middle" x="878.07" y="-26.2" font-family="Helvetica,sans-Serif" font-size="11.00">execute</text>
</g>
<!-- s7&#45;&gt;s8 -->
<g id="edge7" class="edge">
<title>s7&#45;&gt;s8</title>
<path fill="none" stroke="black" d="M800.7,-35C810.14,-35 821.09,-35 831.7,-35"/>
<polygon fill="black" stroke="black" points="831.7,-38.5 841.7,-35 831.7,-31.5 831.7,-38.5"/>
</g>
<!-- s9 -->
<g id="node9" class="node">
<title>s9</title>
<path fill="#ffcdd2" stroke="#f44336" d="M1003.07,-53C1003.07,-53 962.07,-53 962.07,-53 956.07,-53 950.07,-47 950.07,-41 950.07,-41 950.07,-29 950.07,-29 950.07,-23 956.07,-17 962.07,-17 962.07,-17 1003.07,-17 1003.07,-17 1009.07,-17 1015.07,-23 1015.07,-29 1015.07,-29 1015.07,-41 1015.07,-41 1015.07,-47 1009.07,-53 1003.07,-53"/>
<text text-anchor="middle" x="982.57" y="-32.2" font-family="Helvetica,sans-Serif" font-size="11.00">Unlock</text>
</g>
<!-- s8&#45;&gt;s9 -->
<g id="edge8" class="edge">
<title>s8&#45;&gt;s9</title>
<path fill="none" stroke="black" d="M914.34,-35C922.58,-35 931.42,-35 939.9,-35"/>
<polygon fill="black" stroke="black" points="940,-38.5 950,-35 940,-31.5 940,-38.5"/>
</g>
<!-- g1 -->
<g id="node10" class="node">
<title>g1</title>
<path fill="#ffe0b2" stroke="#f57c00" d="M58,-136C58,-136 28,-136 28,-136 22,-136 16,-130 16,-124 16,-124 16,-112 16,-112 16,-106 22,-100 28,-100 28,-100 58,-100 58,-100 64,-100 70,-106 70,-112 70,-112 70,-124 70,-124 70,-130 64,-136 58,-136"/>
<text text-anchor="middle" x="43" y="-115.2" font-family="Helvetica,sans-Serif" font-size="11.00">Lock</text>
</g>
<!-- g2 -->
<g id="node11" class="node">
<title>g2</title>
<path fill="#c8e6c9" stroke="#4caf50" d="M166,-137C166,-137 118,-137 118,-137 112,-137 106,-131 106,-125 106,-125 106,-111 106,-111 106,-105 112,-99 118,-99 118,-99 166,-99 166,-99 172,-99 178,-105 178,-111 178,-111 178,-125 178,-125 178,-131 172,-137 166,-137"/>
<text text-anchor="middle" x="142" y="-121.2" font-family="Helvetica,sans-Serif" font-size="11.00">T1</text>
<text text-anchor="middle" x="142" y="-109.2" font-family="Helvetica,sans-Serif" font-size="11.00">execute</text>
</g>
<!-- g1&#45;&gt;g2 -->
<g id="edge9" class="edge">
<title>g1&#45;&gt;g2</title>
<path fill="none" stroke="black" d="M70.25,-118C78.15,-118 87.06,-118 95.83,-118"/>
<polygon fill="black" stroke="black" points="95.98,-121.5 105.98,-118 95.98,-114.5 95.98,-121.5"/>
</g>
<!-- g3 -->
<g id="node12" class="node">
<title>g3</title>
<path fill="#bbdefb" stroke="#1976d2" d="M262.28,-132.53C262.28,-132.53 225.72,-121.47 225.72,-121.47 219.98,-119.74 219.98,-116.26 225.72,-114.53 225.72,-114.53 262.28,-103.47 262.28,-103.47 268.02,-101.74 279.51,-101.74 285.25,-103.47 285.25,-103.47 321.82,-114.53 321.82,-114.53 327.56,-116.26 327.56,-119.74 321.82,-121.47 321.82,-121.47 285.25,-132.53 285.25,-132.53 279.51,-134.26 268.02,-134.26 262.28,-132.53"/>
<text text-anchor="middle" x="273.77" y="-115.8" font-family="Helvetica,sans-Serif" font-size="9.00">handoff</text>
</g>
<!-- g2&#45;&gt;g3 -->
<g id="edge10" class="edge">
<title>g2&#45;&gt;g3</title>
<path fill="none" stroke="black" d="M178.12,-118C186.19,-118 195.04,-118 204,-118"/>
<polygon fill="black" stroke="black" points="204.12,-121.5 214.12,-118 204.12,-114.5 204.12,-121.5"/>
</g>
<!-- g4 -->
<g id="node13" class="node">
<title>g4</title>
<path fill="#c8e6c9" stroke="#4caf50" d="M429.53,-137C429.53,-137 381.53,-137 381.53,-137 375.53,-137 369.53,-131 369.53,-125 369.53,-125 369.53,-111 369.53,-111 369.53,-105 375.53,-99 381.53,-99 381.53,-99 429.53,-99 429.53,-99 435.53,-99 441.53,-105 441.53,-111 441.53,-111 441.53,-125 441.53,-125 441.53,-131 435.53,-137 429.53,-137"/>
<text text-anchor="middle" x="405.53" y="-121.2" font-family="Helvetica,sans-Serif" font-size="11.00">T2</text>
<text text-anchor="middle" x="405.53" y="-109.2" font-family="Helvetica,sans-Serif" font-size="11.00">execute</text>
</g>
<!-- g3&#45;&gt;g4 -->
<g id="edge11" class="edge">
<title>g3&#45;&gt;g4</title>
<path fill="none" stroke="black" d="M333.58,-118C342.16,-118 350.88,-118 359.14,-118"/>
<polygon fill="black" stroke="black" points="359.31,-121.5 369.31,-118 359.31,-114.5 359.31,-121.5"/>
</g>
<!-- g5 -->
<g id="node14" class="node">
<title>g5</title>
<path fill="#bbdefb" stroke="#1976d2" d="M525.81,-132.53C525.81,-132.53 489.25,-121.47 489.25,-121.47 483.51,-119.74 483.51,-116.26 489.25,-114.53 489.25,-114.53 525.81,-103.47 525.81,-103.47 531.56,-101.74 543.04,-101.74 548.79,-103.47 548.79,-103.47 585.35,-114.53 585.35,-114.53 591.09,-116.26 591.09,-119.74 585.35,-121.47 585.35,-121.47 548.79,-132.53 548.79,-132.53 543.04,-134.26 531.56,-134.26 525.81,-132.53"/>
<text text-anchor="middle" x="537.3" y="-115.8" font-family="Helvetica,sans-Serif" font-size="9.00">handoff</text>
</g>
<!-- g4&#45;&gt;g5 -->
<g id="edge12" class="edge">
<title>g4&#45;&gt;g5</title>
<path fill="none" stroke="black" d="M441.65,-118C449.72,-118 458.58,-118 467.53,-118"/>
<polygon fill="black" stroke="black" points="467.65,-121.5 477.65,-118 467.65,-114.5 467.65,-121.5"/>
</g>
<!-- g6 -->
<g id="node15" class="node">
<title>g6</title>
<path fill="#c8e6c9" stroke="#4caf50" d="M693.07,-137C693.07,-137 645.07,-137 645.07,-137 639.07,-137 633.07,-131 633.07,-125 633.07,-125 633.07,-111 633.07,-111 633.07,-105 639.07,-99 645.07,-99 645.07,-99 693.07,-99 693.07,-99 699.07,-99 705.07,-105 705.07,-111 705.07,-111 705.07,-125 705.07,-125 705.07,-131 699.07,-137 693.07,-137"/>
<text text-anchor="middle" x="669.07" y="-121.2" font-family="Helvetica,sans-Serif" font-size="11.00">T3</text>
<text text-anchor="middle" x="669.07" y="-109.2" font-family="Helvetica,sans-Serif" font-size="11.00">execute</text>
</g>
<!-- g5&#45;&gt;g6 -->
<g id="edge13" class="edge">
<title>g5&#45;&gt;g6</title>
<path fill="none" stroke="black" d="M597.11,-118C605.69,-118 614.42,-118 622.68,-118"/>
<polygon fill="black" stroke="black" points="622.84,-121.5 632.84,-118 622.84,-114.5 622.84,-121.5"/>
</g>
<!-- g7 -->
<g id="node16" class="node">
<title>g7</title>
<path fill="#ffcdd2" stroke="#f44336" d="M794.07,-136C794.07,-136 753.07,-136 753.07,-136 747.07,-136 741.07,-130 741.07,-124 741.07,-124 741.07,-112 741.07,-112 741.07,-106 747.07,-100 753.07,-100 753.07,-100 794.07,-100 794.07,-100 800.07,-100 806.07,-106 806.07,-112 806.07,-112 806.07,-124 806.07,-124 806.07,-130 800.07,-136 794.07,-136"/>
<text text-anchor="middle" x="773.57" y="-115.2" font-family="Helvetica,sans-Serif" font-size="11.00">Unlock</text>
</g>
<!-- g6&#45;&gt;g7 -->
<g id="edge14" class="edge">
<title>g6&#45;&gt;g7</title>
<path fill="none" stroke="black" d="M705.34,-118C713.58,-118 722.42,-118 730.9,-118"/>
<polygon fill="black" stroke="black" points="731,-121.5 741,-118 731,-114.5 731,-121.5"/>
</g>
</g>
</svg>
